<svg id="Layer_1" data-name="Layer 1" xmlns="http://www.w3.org/2000/svg" viewBox="0 0 494.16 200"><defs><style>.cls-1{fill:#c8202f;}.cls-2{fill:#f9b234;}.cls-3{fill:#f7cd85;}.cls-4{fill:#565455;}</style></defs><path class="cls-1" d="M112.8,191.68,98.07,200,0,101.93,93.62,8.32,108.35,0l33.74,33.74L79,96.82l64.33,64.33Zm0-10.21,20.32-20.32L68.79,96.82l63.08-63.08-23.4-23.41-83.4,83.4Z"/><path class="cls-1" d="M350.82,161.15l64.33-64.33L352.07,33.74,385.81,0l14.73,8.32,93.62,93.61L396.09,200l-14.73-8.32ZM469.09,93.73l-83.4-83.4-23.4,23.41,63.08,63.08L361,161.15l20.32,20.32Z"/><path class="cls-1" d="M311.38,6.45l33.91,33.9.53,5.88-19,19L289.69,28.14Zm8.17,49.18,19.33-19.32L315.3,12.74,296,32.06Z"/><path class="cls-2" d="M288.42,29.41l37.11,37.11-93.61,93.62L195,123.19Zm0,10.21-83.23,83.57,23.4,23.41L312,63.2Z"/><path class="cls-3" d="M230.53,161.53l-9.19,9.19-46.61,9.49-18.56-18.56,37.25-37.24Zm-34.25-29.09-26.13,25.5,9.16,9.15,35.87-7.16,4.3-4.3Z"/><path class="cls-4" d="M171.76,179.84l-2.85,2.85-17.13.25-8.45-8.45L154.87,163Z"/></svg>